<svg xmlns="http://www.w3.org/2000/svg" width="47.999" height="48"><path d="M35.165 27.208 48 24l-12.835-3.208a11.44 11.44 0 0 1 0 6.416zM12.833 20.792 0 24l12.833 3.208a11.464 11.464 0 0 1 0-6.416zM27.207 12.833 24 0l-3.21 12.833a11.468 11.468 0 0 1 6.417 0zM20.79 35.166 24 48l3.208-12.834a11.444 11.444 0 0 1-6.417 0zM18.367 13.832 7.028 7.029l6.8 11.34a11.676 11.676 0 0 1 4.539-4.537zM29.631 34.167l11.339 6.8-6.8-11.338a11.684 11.684 0 0 1-4.539 4.538zM34.166 18.369l6.8-11.34-11.339 6.8a11.689 11.689 0 0 1 4.539 4.54zM13.832 29.632 7.028 40.97l11.339-6.8a11.671 11.671 0 0 1-4.535-4.538z" fill="#fddc85"/><circle cx="23.999" cy="24" r="9.375" fill="#ffbd66"/></svg>